<?xml version="1.0" encoding="iso-8859-1"?>
<!-- Generator: Adobe Illustrator 16.0.0, SVG Export Plug-In . SVG Version: 6.00 Build 0)  -->
<!DOCTYPE svg PUBLIC "-//W3C//DTD SVG 1.1//EN" "http://www.w3.org/Graphics/SVG/1.1/DTD/svg11.dtd">
<svg version="1.1" id="Layer_1" xmlns="http://www.w3.org/2000/svg" xmlns:xlink="http://www.w3.org/1999/xlink" x="0px" y="0px"
	 width="16px" height="16px" viewBox="0 0 27.409 28.514" style="enable-background:new 0 0 27.409 28.514;"
	 xml:space="preserve">
<path d="M26.018,0.841C22.209,3.139,9.775,10.806,9.63,12.947l-0.009,0.136l0.375,0.724l-0.758-0.123l-0.132-0.015
	c-0.683,0-2.211,1.757-2.869,3.297c-0.767,1.791-0.568,3.368,0.571,4.561c0.065,0.069,0.138,0.13,0.207,0.193L6.253,22.46
	l-0.897-0.864l-0.513,0.532l0.88,0.846L0,28.514l2.395-0.865l4.035-3.995l0.645,0.619l0.511-0.531l-0.63-0.607l0.847-0.839
	c0.733,0.418,1.599,0.64,2.565,0.64c2.137,0,4.359-1.072,4.814-1.795c0.139-0.218,0.136-0.406,0.104-0.537l-0.058-0.571l0.523,0.257
	l0.245,0.053c0.468,0,1.108,0,6.053-9.564c2.381-4.604,4.631-9.268,4.654-9.314L27.409,0L26.018,0.841z M15.979,19.326l-1.891-0.924
	l0.233,2.28c-0.356,0.387-2.13,1.288-3.954,1.288c-0.695,0-1.303-0.142-1.836-0.394l0.023-0.024l9.117-10.025l-0.153-0.119
	l-9.642,9.479l-0.156,0.151c-0.069-0.062-0.146-0.111-0.213-0.179c-0.661-0.691-0.892-1.556-0.684-2.568
	c0.355-1.733,1.871-3.361,2.328-3.64l2.589,0.421l-1.119-2.155c0.431-1.057,5.179-4.472,10.762-8.051v2l1.683-0.198
	C19.912,12.946,16.894,18.511,15.979,19.326z M23.412,5.976l-1.385,0.163V4.452c1.015-0.645,2.049-1.292,3.088-1.93
	C24.554,3.676,23.982,4.835,23.412,5.976z"/>
<g>
</g>
<g>
</g>
<g>
</g>
<g>
</g>
<g>
</g>
<g>
</g>
<g>
</g>
<g>
</g>
<g>
</g>
<g>
</g>
<g>
</g>
<g>
</g>
<g>
</g>
<g>
</g>
<g>
</g>
</svg>
