<?xml version="1.0" standalone="no"?><!DOCTYPE svg PUBLIC "-//W3C//DTD SVG 1.1//EN" "http://www.w3.org/Graphics/SVG/1.1/DTD/svg11.dtd"><svg t="1541763130022" class="icon" style="" viewBox="0 0 1024 1024" version="1.1" xmlns="http://www.w3.org/2000/svg" p-id="2137" xmlns:xlink="http://www.w3.org/1999/xlink" width="16" height="16"><defs><style type="text/css"></style></defs><path d="M938.666667 85.333333s-325.973333-15.786667-582.826667 336.213334C158.72 691.626667 85.333333 938.666667 85.333333 938.666667l82.773334-42.666667c61.44-106.666667 93.44-150.613333 153.6-213.333333 107.946667 31.573333 220.586667 27.733333 318.293333-85.333334-85.333333-23.893333-153.6-18.346667-254.293333-8.106666C498.773333 512 576 494.933333 682.666667 512l42.666666-85.333333c-76.8-14.506667-128-15.786667-203.946666 1.706666C605.44 369.066667 663.893333 335.786667 768 341.333333l51.626667-82.346666c-66.56-4.693333-106.666667 2.56-183.04 21.333333 68.693333-62.293333 131.413333-90.453333 222.72-96 0 0 44.8-80.64 79.36-98.986667z" fill="" p-id="2138"></path></svg>