<?xml version="1.0" standalone="no"?><!DOCTYPE svg PUBLIC "-//W3C//DTD SVG 1.1//EN" "http://www.w3.org/Graphics/SVG/1.1/DTD/svg11.dtd"><svg t="1541681948283" class="icon" style="" viewBox="0 0 1026 1024" version="1.1" xmlns="http://www.w3.org/2000/svg" p-id="8457" xmlns:xlink="http://www.w3.org/1999/xlink" width="20.0625" height="20"><defs><style type="text/css"></style></defs><path d="M512.002307 0C229.658288 0 0.002307 229.655981 0.002307 512S229.658288 1024 512.002307 1024 1024.002307 794.344019 1024.002307 512 794.346326 0 512.002307 0z m0 989.89647C248.498253 989.89647 34.105837 775.504054 34.105837 512S248.498253 34.10353 512.002307 34.10353 989.898777 248.495946 989.898777 512 775.506361 989.89647 512.002307 989.89647z" fill="#bfbfbf" p-id="8458"></path><path d="M336.439378 446.571037a17.051765 17.051765 0 1 0 0 34.10353c71.943121 0 132.199077 22.256705 174.157915 64.375202 41.99077 42.086566 64.18361 102.438319 64.18361 174.509168a17.051765 17.051765 0 1 0 34.10353 0c0.031932-81.299239-25.60958-149.953349-74.082575-198.617937-48.568791-48.632656-117.127105-74.369964-198.36248-74.369963z" fill="#bfbfbf" p-id="8459"></path><path d="M336.535175 289.337159a17.051765 17.051765 0 1 0 0 34.10353c227.99551 0 399.886242 170.294125 399.886241 396.086316a17.051765 17.051765 0 1 0 34.10353 0c0.031932-245.238867-186.547586-430.189847-433.989771-430.189846zM384.241798 604.02844a65.013846 65.013846 0 0 0-64.918049 64.981913c0 35.795934 29.122116 64.918049 64.918049 64.918049a65.045778 65.045778 0 0 0 64.981914-64.949981 65.07771 65.07771 0 0 0-64.981914-64.949981z m0 95.796432a30.846451 30.846451 0 1 1 0.063864-61.692902 30.846451 30.846451 0 0 1-0.063864 61.692902z" fill="#bfbfbf" p-id="8460"></path></svg>