<?xml version="1.0" encoding="UTF-8"?>
<svg width="21px" height="20px" viewBox="0 0 21 20" version="1.1" xmlns="http://www.w3.org/2000/svg" xmlns:xlink="http://www.w3.org/1999/xlink">
    <!-- Generator: Sketch 53 (72520) - https://sketchapp.com -->
    <title>Untitled</title>
    <desc>Created with Sketch.</desc>
    <g id="Page-1" stroke="none" stroke-width="1" fill="none" fill-rule="evenodd">
        <g id="search-(1)" fill="#268785" fill-rule="nonzero">
            <path d="M14.9073287,10.6864129 L13.4226243,10.5057902 C13.4489259,10.2883041 13.4621129,10.069432 13.4621136,9.85036125 C13.4621136,7.35856287 11.7005169,5.15370453 9.27297623,4.60926619 L9.60010654,3.15026498 C12.7344091,3.85386137 14.9608731,6.63805798 14.9580338,9.85036125 C14.9579209,10.12981 14.9409886,10.4089987 14.9073287,10.6864129 L14.9073287,10.6864129 Z" id="Path"></path>
            <path d="M9.06034152,18.1204494 C4.75079077,18.1182871 1.03888084,15.081453 0.183135248,10.8577186 C-0.672610339,6.6339843 1.5645502,2.39184461 5.53340936,0.712443105 C10.1387078,-1.21219367 15.4333079,0.949319348 17.3758393,5.54709839 C19.3183707,10.1448774 17.1774638,15.4478433 12.5872737,17.4082399 C11.4715213,17.8805187 10.2719294,18.1227578 9.06034152,18.1204494 Z M9.06034152,1.49545289 C4.88919629,1.49545289 1.49498557,4.88896262 1.49498557,9.06034152 C1.49498557,13.2317204 4.88919629,16.6249965 9.06034152,16.6249965 C13.2314868,16.6249965 16.6252302,13.2314868 16.6252302,9.06034152 C16.6252302,4.88919629 13.2314868,1.49545289 9.06034152,1.49545289 Z" id="Shape"></path>
            <polygon id="Path" points="14.7332486 15.6772065 15.7906973 14.6197577 20.1134909 18.9425513 19.0560421 20"></polygon>
        </g>
    </g>
</svg>