<?xml version="1.0" encoding="UTF-8"?>
<svg width="17px" height="16px" viewBox="0 0 17 16" version="1.1" xmlns="http://www.w3.org/2000/svg" xmlns:xlink="http://www.w3.org/1999/xlink">
    <!-- Generator: Sketch 53 (72520) - https://sketchapp.com -->
    <title>Untitled</title>
    <desc>Created with Sketch.</desc>
    <g id="Page-1" stroke="none" stroke-width="1" fill="none" fill-rule="evenodd">
        <g id="search" fill="#268785" fill-rule="nonzero">
            <path d="M11.925863,8.54913032 L10.7380994,8.40463216 C10.7591407,8.23064328 10.7696903,8.0555456 10.7696909,7.880289 C10.7696909,5.8868503 9.36041352,4.12296362 7.41838098,3.68741295 L7.68008523,2.52021198 C10.1875273,3.0830891 11.9686985,5.31044638 11.966427,7.880289 C11.9663367,8.103848 11.9527909,8.32719896 11.925863,8.54913032 L11.925863,8.54913032 Z" id="Path"></path>
            <path d="M7.24827322,14.4963595 C3.80063262,14.4946297 0.831104672,12.0651624 0.146508198,8.68617488 C-0.538088271,5.30718744 1.25164016,1.91347569 4.42672749,0.569954484 C8.11096624,-0.969754936 12.3466463,0.759455478 13.9006714,4.43767871 C15.4546966,8.11590192 13.741971,12.3582746 10.069819,13.9265919 C9.17721704,14.304415 8.21754352,14.4982062 7.24827322,14.4963595 Z M7.24827322,1.19636231 C3.91135703,1.19636231 1.19598846,3.9111701 1.19598846,7.24827322 C1.19598846,10.5853763 3.91135703,13.2999972 7.24827322,13.2999972 C10.5851894,13.2999972 13.3001842,10.5851894 13.3001842,7.24827322 C13.3001842,3.91135703 10.5851894,1.19636231 7.24827322,1.19636231 Z" id="Shape"></path>
            <polygon id="Path" points="11.7865989 12.5417652 12.6325578 11.6958062 16.0907927 15.154041 15.2448337 16"></polygon>
        </g>
    </g>
</svg>