<?xml version="1.0" standalone="no"?><!DOCTYPE svg PUBLIC "-//W3C//DTD SVG 1.1//EN" "http://www.w3.org/Graphics/SVG/1.1/DTD/svg11.dtd"><svg t="1541681745933" class="icon" style="" viewBox="0 0 1024 1024" version="1.1" xmlns="http://www.w3.org/2000/svg" p-id="7604" xmlns:xlink="http://www.w3.org/1999/xlink" width="20" height="20"><defs><style type="text/css"></style></defs><path d="M512 0C229.12 0 0 229.12 0 512c0 282.88 229.12 512 512 512 282.624 0 512-229.12 512-512C1024 229.12 794.88 0 512 0L512 0zM512 992c-265.216 0-480-215.04-480-480C32 246.784 246.784 32 512 32c264.96 0 480 214.784 480 480C992 777.216 776.96 992 512 992L512 992zM512 992" p-id="7605" fill="#bfbfbf"></path><path d="M793.088 810.752l-92.416-50.944c-22.016 5.376-44.544 10.752-67.584 10.752-57.088 0-110.592-18.944-150.784-53.504-40.448-34.816-62.976-81.664-62.976-131.84 0-49.92 22.272-96.768 62.976-131.84 40.192-34.56 93.696-53.504 150.784-53.504 115.712 0 213.248 84.992 213.248 185.344 0 49.408-27.904 98.816-78.848 140.288L793.088 810.752zM705.024 725.76 739.84 744.96l-9.472-31.488 8.96-6.656c27.904-20.992 75.008-65.024 75.008-121.6 0-39.936-19.2-78.08-53.76-107.52-34.56-29.184-80.896-45.824-127.488-45.824-49.408 0-95.488 16.384-129.792 45.824-33.28 28.672-51.712 67.072-51.712 107.52 0 40.704 18.432 78.848 51.712 107.52 34.304 29.44 80.384 45.824 129.792 45.824 21.248 0 43.776-5.632 65.792-11.264L705.024 725.76z" p-id="7606" fill="#bfbfbf"></path><path d="M226.304 698.88l31.744-95.744c-58.88-44.8-90.112-101.12-90.112-163.584 0-58.368 26.368-112.64 73.984-153.088 46.592-39.68 108.544-61.44 174.336-61.44 58.624 0 115.968 17.664 161.536 49.664 46.336 32.512 77.824 77.568 88.32 126.976l-31.232 6.656c-18.432-86.272-112.384-151.296-218.624-151.296-58.112 0-112.896 19.2-153.6 53.76-40.448 34.304-62.72 79.872-62.72 128.768 0 55.808 28.928 104.192 86.272 144.384l9.728 6.912-14.848 44.8 51.456-25.856 5.376 1.024c4.608 1.024 9.216 1.792 13.568 2.816 22.528 4.608 41.984 8.704 64.768 8.704 6.144 0 12.8-0.256 20.48-0.768l2.56 32c-8.448 0.768-15.872 1.024-23.04 1.024-26.112 0-47.872-4.608-71.168-9.216-2.56-0.512-5.376-1.024-7.936-1.536L226.304 698.88z" p-id="7607" fill="#bfbfbf"></path><path d="M503.296 340.224" p-id="7608" fill="#bfbfbf"></path><path d="M337.664 369.408m-21.76 0a8.5 8.5 0 1 0 43.52 0 8.5 8.5 0 1 0-43.52 0Z" p-id="7609" fill="#bfbfbf"></path><path d="M699.904 532.736m-21.76 0a8.5 8.5 0 1 0 43.52 0 8.5 8.5 0 1 0-43.52 0Z" p-id="7610" fill="#bfbfbf"></path><path d="M571.904 532.736m-21.76 0a8.5 8.5 0 1 0 43.52 0 8.5 8.5 0 1 0-43.52 0Z" p-id="7611" fill="#bfbfbf"></path><path d="M500.224 369.408m-21.76 0a8.5 8.5 0 1 0 43.52 0 8.5 8.5 0 1 0-43.52 0Z" p-id="7612" fill="#bfbfbf"></path></svg>