<?xml version="1.0" encoding="UTF-8"?>
<svg width="15px" height="15px" viewBox="0 0 15 15" version="1.1" xmlns="http://www.w3.org/2000/svg" xmlns:xlink="http://www.w3.org/1999/xlink">
    <!-- Generator: Sketch 53 (72520) - https://sketchapp.com -->
    <title>Untitled</title>
    <desc>Created with Sketch.</desc>
    <g id="Page-1" stroke="none" stroke-width="1" fill="none" fill-rule="evenodd">
        <g id="feather" transform="translate(0.328125, 0.328125)" fill="#268785" fill-rule="nonzero">
            <path d="M13.3385417,0.00520832812 C13.3385417,0.00520832812 8.24520834,-0.241458344 4.231875,5.25854167 C1.151875,9.47854167 0.00520832812,13.3385417 0.00520832812,13.3385417 L1.29854167,12.671875 C2.25854167,11.0052083 2.75854167,10.3185417 3.69854167,9.33854167 C5.38520834,9.831875 7.14520834,9.771875 8.671875,8.00520833 C7.33854167,7.631875 6.271875,7.71854166 4.69854167,7.87854167 C6.46520833,6.671875 7.671875,6.40520833 9.33854167,6.671875 L10.0052083,5.33854167 C8.80520833,5.111875 8.00520833,5.091875 6.81854167,5.36520833 C8.131875,4.43854167 9.04520833,3.91854167 10.671875,4.00520833 L11.4785417,2.71854167 C10.4385417,2.64520834 9.811875,2.75854167 8.61854167,3.051875 C9.691875,2.07854167 10.671875,1.63854167 12.0985417,1.551875 C12.0985417,1.551875 12.7985417,0.291875 13.3385417,0.00520832812 Z" id="Path"></path>
        </g>
    </g>
</svg>