<?xml version="1.0" standalone="no"?><!DOCTYPE svg PUBLIC "-//W3C//DTD SVG 1.1//EN" "http://www.w3.org/Graphics/SVG/1.1/DTD/svg11.dtd"><svg t="1541682013809" class="icon" style="" viewBox="0 0 1026 1024" version="1.1" xmlns="http://www.w3.org/2000/svg" p-id="9265" xmlns:xlink="http://www.w3.org/1999/xlink" width="20.0625" height="20"><defs><style type="text/css"></style></defs><path d="M512.034307 0C229.72222 0 0.002375 229.655981 0.002375 512S229.72222 1024 512.034307 1024 1024.066239 794.344019 1024.066239 512 794.346394 0 512.034307 0z m0 989.89647C248.530253 989.89647 34.169769 775.504054 34.169769 512S248.530253 34.10353 512.034307 34.10353 989.898845 248.495946 989.898845 512 775.538361 989.89647 512.034307 989.89647z" fill="#bfbfbf" p-id="9266"></path><path d="M792.845583 353.808158a119.106898 119.106898 0 0 0 8.717476-20.532369 17.083697 17.083697 0 0 0-24.939005-19.893726 192.646626 192.646626 0 0 1-52.560309 21.490333 122.332044 122.332044 0 0 0-81.810154-31.517026 121.980791 121.980791 0 0 0-121.789198 126.866409 281.673444 281.673444 0 0 1-183.130847-101.480355 17.115629 17.115629 0 0 0-27.972558 2.235251 121.757266 121.757266 0 0 0-2.107522 118.819508 20.053387 20.053387 0 0 0-6.833478 2.490707 18.233254 18.233254 0 0 0-8.430087 15.359362c0 36.242984 16.125733 69.516278 42.118499 92.124236l-1.117625 1.117625a17.051765 17.051765 0 0 0-3.448672 16.54085 121.853062 121.853062 0 0 0 69.739803 75.519521 195.871772 195.871772 0 0 1-108.760883 18.488712 17.403019 17.403019 0 0 0-18.073594 11.240115 17.115629 17.115629 0 0 0 6.865411 20.117251 314.244231 314.244231 0 0 0 169.847075 49.782212c197.340651 0 315.297992-160.299364 315.297992-315.266059l-0.031932-5.236872a227.420731 227.420731 0 0 0 49.207434-53.007359 17.083697 17.083697 0 0 0-20.787826-25.258326z m-55.721591 56.040913a17.083697 17.083697 0 0 0-7.088936 14.720718c0.191593 4.215043 0.287389 8.49395 0.287389 12.708994 0 138.20232-105.152551 281.16253-281.130598 281.162529a279.725583 279.725583 0 0 1-92.1881-15.582886 225.856056 225.856056 0 0 0 97.233379-44.385681 17.083697 17.083697 0 0 0-10.218286-30.495197 87.877261 87.877261 0 0 1-70.059124-37.105152c8.078832-0.542846 15.998004-1.883997 23.693651-3.959586a17.051765 17.051765 0 0 0-1.149558-33.20943 87.526007 87.526007 0 0 1-66.450792-60.830734c8.49395 2.139454 17.211426 3.384807 25.928901 3.672196 7.504054-0.031932 14.465261-4.630161 16.796308-11.846825s-0.415118-15.167768-6.769614-19.382812a87.685668 87.685668 0 0 1-36.498441-94.040164 315.585381 315.585381 0 0 0 209.730323 94.902332c5.620057 0.031932 10.537608-1.979793 13.954347-6.099039s4.725957-9.579643 3.512536-14.816515a87.813397 87.813397 0 0 1 149.506299-80.021954 17.083697 17.083697 0 0 0 15.774479 5.077211c5.268804-1.053761 10.473743-2.267182 15.614819-3.672196a81.043782 81.043782 0 0 1-7.216665 4.821753 17.083697 17.083697 0 0 0 10.793065 31.548959l5.81165-0.734439a178.979668 178.979668 0 0 1-9.867032 7.567918z" fill="#bfbfbf" p-id="9267"></path></svg>