<?xml version="1.0" standalone="no"?><!DOCTYPE svg PUBLIC "-//W3C//DTD SVG 1.1//EN" "http://www.w3.org/Graphics/SVG/1.1/DTD/svg11.dtd"><svg t="1542113100739" class="icon" style="" viewBox="0 0 1024 1024" version="1.1" xmlns="http://www.w3.org/2000/svg" p-id="1967" xmlns:xlink="http://www.w3.org/1999/xlink" width="20" height="20"><defs><style type="text/css"></style></defs><path d="M512 2.553616C229.825436 2.553616 1.276808 231.102244 1.276808 513.276808c0 282.174564 228.548628 510.723192 510.723192 510.723192 281.919202 0 510.723192-228.548628 510.723192-510.723192C1022.723192 231.102244 794.174564 2.553616 512 2.553616L512 2.553616zM512 992.0798c-264.554613 0-478.802993-214.503741-478.802993-478.802993C33.197007 248.722195 247.445387 34.473815 512 34.473815c264.299252 0 478.802993 214.248379 478.802993 478.802993C990.802993 777.831421 776.299252 992.0798 512 992.0798L512 992.0798zM512 992.0798" p-id="1968" fill="#bfbfbf"></path><path d="M455.054364 767.106234c-40.347132 0-80.694264-5.617955-118.487781-17.61995-68.692269-21.195012-118.232419-60.520698-136.107731-107.25187-19.662843-48.263342-15.066334-101.889277 13.278803-155.515212 29.877307-56.945636 85.035411-111.593017 163.686783-162.665337 70.735162-45.965087 110.316209-36.261347 131.25586-19.918204 21.195012 16.598504 30.132668 46.986534 24.00399 78.906733 32.430923-16.087781 104.442893-29.621945 139.17207-0.255362 14.555611 12.257357 28.600499 36.261347 12.76808 81.715711-0.255362 1.021446-0.510723 1.787531-0.766085 2.553616 4.596509 1.276808 10.725187 3.064339 18.386035 6.128678 28.85586 11.23591 62.308229 43.15611 67.415461 86.312219 4.085786 33.707731-7.660848 85.290773-85.801496 139.17207C619.507232 743.612968 537.025436 767.106234 455.054364 767.106234zM467.056359 322.521696c-18.641397 0-43.666833 9.703741-72.267332 28.345137-74.054863 48.00798-125.637905 98.824938-152.961596 150.918703-23.748628 44.943641-27.834414 89.63192-11.746633 128.957606l0.255362 0.255362c14.300249 37.793516 56.690274 69.969077 115.934165 88.355112 80.438903 25.025436 212.460848 27.834414 319.96808-46.47581 51.583042-35.750623 76.608479-73.54414 72.267332-109.550125-3.319701-29.111222-26.557606-52.349127-47.497257-60.520698-6.38404-2.553616-11.491272-4.085786-15.832419-5.107232-8.937656-2.553616-17.109227-5.107232-21.961097-13.789526-4.596509-8.937656-2.042893-18.130673 1.787531-29.366584 7.916209-22.982544 6.639401-38.814963-3.319701-47.241895-9.703741-8.171571-28.600499-11.491272-52.093766-9.193017-23.237905 2.298254-44.688279 9.193017-54.902743 14.810973-7.405486 4.085786-26.812968 14.810973-40.347132 3.575062-7.405486-6.128678-9.448379-16.853865-5.617955-28.089776 8.171571-24.00399 4.085786-48.00798-9.703741-58.733167C483.399501 324.81995 475.994015 322.521696 467.056359 322.521696z" p-id="1969" fill="#bfbfbf"></path><path d="M448.925686 465.268828" p-id="1970" fill="#bfbfbf"></path><path d="M810.517706 452.245387 810.517706 452.245387c-7.660848-2.553616-12.257357-10.725187-10.214464-18.386035 13.789526-58.988529-17.364589-101.633915-17.61995-102.144638-34.984539-45.965087-88.610474-47.497257-113.63591-45.199002-7.916209 0.766085-15.066334-4.341147-16.853865-12.001995l0 0c-2.298254-9.193017 4.341147-18.386035 13.789526-19.407481 31.409476-2.808978 97.292768-0.766085 141.981047 57.711721 1.787531 2.553616 40.347132 55.158105 23.237905 128.191521C828.903741 449.947132 819.455362 455.309726 810.517706 452.245387z" p-id="1971" fill="#bfbfbf"></path><path d="M742.846883 418.793017 742.846883 418.793017c-7.916209-1.53217-13.278803-8.682294-12.76808-16.598504 0.766085-13.789526-2.042893-24.259352-8.682294-31.154115-8.171571-8.937656-20.684289-11.746633-30.132668-12.76808-7.405486-0.766085-13.278803-6.639401-14.044888-14.044888l0 0c-1.021446-9.959102 7.405486-18.386035 17.364589-17.364589 14.810973 1.53217 35.495262 6.639401 50.050873 22.47182 12.76808 13.789526 18.386035 32.175561 17.109227 54.902743C760.977556 413.685786 752.0399 420.580549 742.846883 418.793017z" p-id="1972" fill="#bfbfbf"></path></svg>